<svg width="148" height="32" viewBox="0 0 148 32" fill="none" xmlns="http://www.w3.org/2000/svg">
<path d="M21.5452 18.1435C21.5452 22.7368 17.4432 25.3779 10.8109 25.3779C0.69006 25.3779 0 17.6076 0 17.6076H3.83367C3.83367 17.6076 4.02535 22.3157 10.8109 22.3157C16.0247 22.3157 17.8265 19.8277 17.8265 18.1818C17.8265 11.6363 1.22677 15.2344 0.80507 7.38754C0.57505 2.79425 4.52373 0 10.6576 0C20.6251 0 20.7018 6.54544 20.7018 6.54544H16.8681C16.8681 6.54544 16.4464 3.06219 10.6576 3.06219C6.74725 3.06219 4.1787 4.66985 4.44705 7.23443C4.98377 12.2871 21.5452 8.76553 21.5452 18.1435Z" fill="white"/>
<path d="M39.7913 7.77039V24.9952H36.5327V22.1627C35.6893 23.8086 33.8875 25.378 31.3189 25.378C26.2968 25.378 23.8433 22.7369 23.8433 17.4163V7.77039H27.2169V17.4163C27.2169 21.0527 28.7504 22.5072 31.4339 22.5072C34.2708 22.5072 36.4177 21.0527 36.4177 16.6508V7.77039H39.7913Z" fill="white"/>
<path d="M59.1888 15.4258V24.9951H55.8152V15.4258C55.8152 11.6746 54.5118 10.2966 51.5215 10.2583C48.2246 10.22 46.231 11.7128 46.231 16.4975V24.9951H42.8574V7.77027H46.116V10.5645C47.0361 8.61237 49.0296 7.42577 51.4448 7.3875C56.8503 7.27266 59.1888 10.0669 59.1888 15.4258Z" fill="white"/>
<path d="M61.2983 16.3828C61.2983 11.2153 64.8253 7.3876 70.7292 7.3876C76.633 7.3876 80.16 11.2153 80.16 16.3828C80.16 21.7034 76.633 25.378 70.7292 25.378C64.8253 25.378 61.2983 21.5885 61.2983 16.3828ZM64.787 16.3828C64.787 20.0574 67.0488 22.6986 70.7292 22.6986C74.3328 22.6986 76.6713 20.0574 76.6713 16.3828C76.6713 12.823 74.4095 10.067 70.7292 10.067C67.0488 10.067 64.787 12.823 64.787 16.3828Z" fill="white"/>
<path d="M86.9854 24.9952C83.9184 24.9952 82.6533 24.1148 82.6533 21.0526V0.382812H86.0269V21.0526C86.0269 21.8182 86.2186 22.0478 86.9854 22.0478H88.3271V24.9952H86.9854Z" fill="white"/>
<path d="M89.5137 16.3828C89.5137 11.2153 93.0406 7.3876 98.9445 7.3876C104.848 7.3876 108.375 11.2153 108.375 16.3828C108.375 21.7034 104.848 25.378 98.9445 25.378C93.0406 25.378 89.5137 21.5885 89.5137 16.3828ZM93.0023 16.3828C93.0023 20.0574 95.2642 22.6986 98.9445 22.6986C102.548 22.6986 104.887 20.0574 104.887 16.3828C104.887 12.823 102.625 10.067 98.9445 10.067C95.2642 10.067 93.0023 12.823 93.0023 16.3828Z" fill="white"/>
<path d="M128.46 7.77038V28.0574C128.46 31.1196 127.195 32 124.128 32H111.707V29.0526H124.128C124.895 29.0526 125.087 28.823 125.087 28.0574V22.7751C123.668 24.3445 121.713 25.3014 119.605 25.378C113.586 25.6077 110.25 21.8182 110.25 16.4976C110.25 11.1771 113.356 7.3876 119.26 7.3876C121.521 7.3876 123.668 8.34454 125.202 10.067V7.77038H128.46V7.77038ZM125.202 16.3828C125.202 12.7464 123.285 10.067 119.643 10.067C115.963 10.067 113.739 12.7082 113.739 16.4976C113.739 19.9043 116.078 22.6986 119.643 22.6986C123.285 22.6986 125.202 19.7512 125.202 16.3828Z" fill="white"/>
<path d="M147.479 7.77039L139.198 28.0574C138.048 30.6603 137.549 32 134.252 32H131.492V29.0526H134.252C135.288 29.0526 135.249 28.9378 135.671 28.0574L137.089 24.5359L130.074 7.77039H133.716L138.661 20.5933L143.837 7.77039H147.479V7.77039Z" fill="white"/>
</svg>
