<svg width="146" height="43" viewBox="0 0 146 43" fill="none" xmlns="http://www.w3.org/2000/svg">
<g clip-path="url(#clip0_1402_342)">
<path d="M50.7618 8.31487C51.7968 8.31487 52.1128 8.69127 52.1128 9.73579V18.4552C52.6081 18.2237 55.1326 17.8134 57.5203 17.8134C63.7836 17.8134 66.8921 20.8886 66.8921 27.0353V40.8531C66.8921 41.907 66.5317 42.2721 65.4931 42.2721H63.061C62.026 42.2721 61.6675 41.907 61.6675 40.8531V27.1765C61.6675 24.1897 60.0412 22.6765 56.7534 22.6765C54.5449 22.6765 53.0147 22.9099 52.1128 23.3654V40.8512C52.1128 41.9051 51.7968 42.2702 50.7618 42.2702H48.2817C47.2486 42.2702 46.8845 41.9051 46.8845 40.8512V9.73391C46.8845 8.67998 47.2541 8.31299 48.2817 8.31299L50.7618 8.31487Z" fill="white"/>
<path d="M91.1114 8.3147C91.6991 8.3147 91.9227 8.54619 91.9227 9.14091V10.3322C91.9227 10.9307 91.6991 11.1622 91.1114 11.1622H83.937C79.0728 11.1622 77.4946 12.7205 77.4946 17.4914V41.4439C77.4946 42.0386 77.2709 42.2701 76.6832 42.2701H75.2861C74.7464 42.2701 74.4748 41.9934 74.4748 41.4439V21.5302H70.4644C69.9247 21.5302 69.6531 21.2536 69.6531 20.704V19.509C69.6531 18.9142 69.8822 18.6865 70.4644 18.6865H74.4785V17.4914C74.4785 10.8855 77.2266 8.3147 83.9407 8.3147H91.1114Z" fill="white"/>
<path d="M77.4946 18.6865H83.0389C83.6211 18.6865 83.8484 18.9142 83.8484 19.509V20.704C83.8484 21.2536 83.5767 21.5303 83.0389 21.5303H77.4946V18.6865Z" fill="white"/>
<path d="M93.6211 27.0334C93.6211 20.9319 97.0918 17.3523 103.579 17.3523C110.114 17.3523 113.584 21.1163 113.584 26.8546V29.3765C113.584 30.2479 113.133 30.6619 112.231 30.6619H96.6409V33.3212C96.6409 37.3168 99.0305 39.6109 103.399 39.6109C106.726 39.6109 109.079 38.3255 110.474 35.7999C110.844 35.2955 111.283 35.2014 111.782 35.478L112.727 35.9862C113.313 36.308 113.405 36.7183 113.041 37.3168C111.241 40.6197 108.04 42.2702 103.399 42.2702C96.8645 42.2702 93.6211 38.7358 93.6211 33.0013V27.0334ZM110.564 26.6721C110.564 22.494 108.132 20.021 103.579 20.021C99.073 20.021 96.6409 22.494 96.6409 26.6721V28.2774H110.564V26.6721Z" fill="white"/>
<path d="M89.3667 41.444C89.3667 42.0387 89.2318 42.2702 88.5517 42.2702H87.1582C86.5705 42.2702 86.3469 42.0387 86.3469 41.444V25.5108C86.3469 24.918 86.5705 24.6865 87.1582 24.6865H88.5517C89.2318 24.6865 89.3667 24.918 89.3667 25.5108V41.444Z" fill="white"/>
<path d="M89.3667 20.9375C89.3667 21.5322 89.2318 21.7637 88.5517 21.7637H87.1582C86.5705 21.7637 86.3469 21.5322 86.3469 20.9375V19.5203C86.3469 18.9256 86.5705 18.6941 87.1582 18.6941H88.5517C89.2318 18.6941 89.3667 18.9256 89.3667 19.5203V20.9375Z" fill="white"/>
<path d="M126.983 26.5328C126.983 20.659 129.91 17.3523 135.854 17.3523C138.072 17.3523 140.45 17.8134 142.975 18.6867V8.49742C142.975 7.94975 143.246 7.6731 143.786 7.6731H145.183C145.767 7.6731 145.994 7.90459 145.994 8.49742V38.4215C145.994 39.8933 145.678 40.3036 144.237 40.9039C142.119 41.8186 139.504 42.2778 136.44 42.2778C130.134 42.2778 126.978 39.2026 126.978 33.1011L126.983 26.5328ZM142.98 21.5756C140.683 20.659 138.475 20.1961 136.401 20.1961C132.121 20.1961 130.003 22.3566 130.003 26.6232V33.0484C130.003 37.3168 132.256 39.4717 136.717 39.4717C138.75 39.4717 140.548 39.195 142.125 38.6022C142.843 38.2804 142.98 38.1374 142.98 37.4053V21.5756Z" fill="white"/>
<path d="M23.1678 9.68872H28.8489V42.2702H23.4451C23.372 42.2702 23.302 42.2407 23.2503 42.1881C23.1987 42.1355 23.1697 42.0642 23.1697 41.9898V9.68872H23.1678Z" fill="white"/>
<path d="M17.2631 19.2549H11.5839V42.2701H17.2631V19.2549Z" fill="white"/>
<path d="M5.67921 28.8193H0V42.2701H5.67921V28.8193Z" fill="white"/>
<path d="M6.30016 26.9354H0.00183105V25.0233H5.06008L9.08525 15.4589H16.644L20.6691 5.89258H28.8488V7.80659H21.9111L17.8841 17.371H10.3253L6.30016 26.9354Z" fill="white"/>
<path d="M33.4155 17.625C32.5963 17.6392 31.7792 17.7134 30.9705 17.8471V22.5314C31.5312 22.4486 32.0968 22.4052 32.6634 22.4016C35.8051 22.4016 37.4795 23.9768 37.4795 26.8074V32.6115C37.4795 35.8411 35.8014 37.4521 32.4231 37.5048H28.8489V42.2813H32.4231C32.4915 42.2813 32.5525 42.2813 32.6209 42.2813C39.2925 42.2813 42.6006 39.0819 42.6006 32.7489V26.6719C42.6043 20.6381 39.5494 17.625 33.4155 17.625Z" fill="white"/>
<path d="M121.575 41.4439C121.575 42.0386 121.441 42.2701 120.76 42.2701H119.367C118.779 42.2701 118.556 42.0386 118.556 41.4439V9.14091C118.556 8.54619 118.779 8.3147 119.367 8.3147H120.76C121.441 8.3147 121.575 8.54619 121.575 9.14091V41.4439Z" fill="white"/>
<path d="M4.17113 23.1395H3.88098C3.64996 23.1395 3.58343 23.1056 3.53908 22.9701L3.28404 22.2437H1.75566L1.49508 22.9701C1.45072 23.1056 1.38419 23.1395 1.15133 23.1395H0.896292C0.757684 23.1395 0.724419 23.0774 0.768774 22.9513L2.153 19.2851C2.16455 19.2334 2.19514 19.1882 2.23847 19.1588C2.28179 19.1294 2.33455 19.118 2.38586 19.127H2.67971C2.80723 19.127 2.86452 19.1553 2.91257 19.2795L4.2968 22.9513C4.343 23.0774 4.30974 23.1395 4.17113 23.1395ZM2.53741 19.7839H2.4986C2.48984 20.0163 2.44877 20.2463 2.37662 20.467L1.95156 21.6621H3.09184L2.67047 20.4727C2.60122 20.2488 2.55659 20.0178 2.53741 19.7839Z" fill="white"/>
<path d="M26.4001 4.01061H26.1118C25.879 4.01061 25.8124 3.97674 25.7681 3.84123L25.5149 3.11477H23.9846L23.7259 3.84123C23.6816 3.97674 23.615 4.01061 23.3822 4.01061H23.1271C22.9885 4.01061 22.9553 3.9485 22.9996 3.82241L24.3838 0.156233C24.3954 0.104525 24.426 0.0593024 24.4693 0.0298879C24.5126 0.000473324 24.5654 -0.0108896 24.6167 -0.00185627H24.9105C25.0381 -0.00185627 25.0954 0.0263736 25.1434 0.150587L26.5276 3.82241C26.572 3.9485 26.5387 4.01061 26.4001 4.01061ZM24.7645 0.654972H24.7257C24.717 0.887422 24.6759 1.11743 24.6038 1.33815L24.1769 2.53322H25.319L24.8976 1.34379C24.8284 1.11991 24.7837 0.888886 24.7645 0.654972Z" fill="white"/>
<path d="M14.794 10.6203C14.8099 10.7884 14.7787 10.9576 14.7041 11.1084C14.6296 11.2593 14.5147 11.3856 14.3727 11.4728V11.4954C14.7331 11.6253 14.9382 11.9621 14.9382 12.4703C14.9382 13.1817 14.417 13.5713 13.6907 13.5713H12.1235C11.9794 13.5713 11.9387 13.5205 11.9387 13.3831V9.7583C11.9387 9.61715 11.9886 9.5701 12.1235 9.5701H13.6575C14.3727 9.56633 14.794 9.94462 14.794 10.6203ZM13.5743 10.225H12.6281V11.2187H13.5743C13.9014 11.2187 14.0844 11.0607 14.0844 10.7219C14.0844 10.3831 13.9069 10.225 13.5743 10.225ZM13.6741 11.8624H12.6281V12.9107H13.6759C14.0197 12.9107 14.2026 12.7356 14.2026 12.3912C14.2108 12.3191 14.2027 12.246 14.1791 12.1776C14.1554 12.1091 14.1167 12.047 14.0659 11.9961C14.0151 11.9451 13.9536 11.9066 13.8861 11.8834C13.8185 11.8602 13.7466 11.8531 13.6759 11.8624H13.6741Z" fill="white"/>
</g>
<defs>
<clipPath id="clip0_1402_342">
<rect width="146" height="43" fill="white"/>
</clipPath>
</defs>
</svg>
