<svg width="200" height="53" viewBox="0 0 200 53" fill="none" xmlns="http://www.w3.org/2000/svg">
<g clip-path="url(#clip0_840_164)">
<mask id="mask0_840_164" style="mask-type:luminance" maskUnits="userSpaceOnUse" x="0" y="0" width="200" height="53">
<path d="M200 0H0V52.457H200V0Z" fill="white"/>
</mask>
<g mask="url(#mask0_840_164)">
<path fill-rule="evenodd" clip-rule="evenodd" d="M69.2874 5.40576H90.5405V13.6367H76.7813L75.9214 18.9193C76.1671 18.7964 76.4128 18.6736 76.7813 18.5507C77.027 18.4279 77.3956 18.305 77.7641 18.1822C78.1327 18.0593 78.6241 17.9365 79.1155 17.9365C79.6069 17.8136 80.344 17.8136 81.0811 17.8136C83.4152 17.8136 85.258 18.1822 86.9779 19.0421C88.5749 19.9021 89.9263 21.0077 90.9091 22.2362C91.8919 23.4647 92.7518 24.9389 93.2432 26.4131C93.7346 27.8873 93.9803 29.3615 93.9803 30.59C93.9803 32.0642 93.7346 33.5384 93.1204 35.2583C92.5061 36.8554 91.6462 38.4524 90.4177 39.8038C89.1892 41.1551 87.715 42.3836 85.8722 43.2436C84.0295 44.1035 81.8182 44.5949 79.2383 44.5949C77.1499 44.5949 75.3071 44.3492 73.5872 43.735C71.8673 43.1207 70.516 42.3836 69.2874 41.4008C68.0589 40.418 67.0761 39.1895 66.2162 37.8382C65.4791 36.4868 64.8648 35.1355 64.6191 33.5384H74.4472C74.9386 34.1527 75.3071 34.6441 75.7985 34.8898C76.2899 35.2583 76.6585 35.504 77.1499 35.6269C77.5184 35.7497 77.887 35.8726 78.2555 35.8726C78.6241 35.8726 78.8698 35.8726 78.9926 35.8726C79.7297 35.8726 80.344 35.7497 80.9582 35.504C81.5725 35.2583 82.1867 34.8898 82.6781 34.3984C83.1695 33.907 83.5381 33.4156 83.7838 32.8013C84.0295 32.1871 84.1523 31.5728 84.1523 30.8357C84.1523 30.2215 84.0295 29.6072 83.7838 28.993C83.5381 28.3787 83.1695 27.8873 82.801 27.3959C82.3096 26.9045 81.8182 26.536 81.2039 26.2903C80.5897 26.0446 79.8526 25.7989 78.9926 25.7989C78.0098 25.7989 77.1499 26.0446 76.1671 26.4131C75.3071 26.9045 74.57 27.7645 73.9558 29.1158L65.9705 27.1502L69.2874 5.40576Z" fill="white"/>
<path fill-rule="evenodd" clip-rule="evenodd" d="M184.521 15.1107H192.629V18.182H192.752C192.875 17.8134 193.121 17.4449 193.489 16.9535C193.858 16.4621 194.226 16.0935 194.718 15.6021C195.209 15.2336 195.946 14.865 196.806 14.4965C197.666 14.2508 198.649 14.0051 200 14.0051V22.7274C199.017 22.7274 198.035 22.8503 197.297 22.9731C196.438 23.096 195.7 23.3417 195.086 23.7102C194.472 24.0788 193.98 24.5702 193.735 25.3073C193.366 26.0444 193.243 26.9043 193.243 28.01V43.8576H184.644V15.1107H184.521ZM100.246 21.6218H97.0518V15.1107H100.246V13.5137C100.246 11.5481 100.614 9.95101 101.352 8.72251C102.089 7.49401 103.071 6.63406 104.177 6.01981C105.283 5.40556 106.511 5.03701 107.74 4.91416C108.968 4.79131 110.197 4.66846 111.18 4.66846H112.408H112.654V11.1795H111.425C111.302 11.1795 111.057 11.1795 110.688 11.3024C110.32 11.3024 110.074 11.4252 109.828 11.6709C109.582 11.9166 109.337 12.1623 109.091 12.408C108.845 12.7766 108.723 13.268 108.723 13.8822V14.9879H112.654V21.4989H108.723V43.7348H100.123V21.6218H100.246ZM124.079 29.4842C124.079 30.467 124.202 31.4498 124.57 32.4326C124.939 33.2925 125.43 34.1525 126.044 34.7667C126.659 35.381 127.396 35.8724 128.256 36.2409C129.116 36.6095 129.976 36.7323 130.958 36.7323C131.941 36.7323 132.801 36.6095 133.661 36.2409C134.521 35.8724 135.258 35.381 135.872 34.7667C136.487 34.1525 136.978 33.4154 137.347 32.4326C137.715 31.5726 137.838 30.5898 137.838 29.4842C137.838 28.5014 137.715 27.5186 137.347 26.5358C136.978 25.6758 136.487 24.8159 135.872 24.2016C135.258 23.5874 134.521 23.096 133.661 22.7274C132.801 22.3589 131.941 22.236 130.958 22.236C129.976 22.236 129.116 22.3589 128.256 22.7274C127.396 23.096 126.659 23.5874 126.044 24.2016C125.43 24.8159 124.939 25.553 124.57 26.5358C124.202 27.3957 124.079 28.3785 124.079 29.4842ZM115.479 29.4842C115.479 27.7643 115.848 25.9215 116.462 24.0788C117.076 22.236 118.059 20.639 119.288 19.1648C120.516 17.6906 122.236 16.4621 124.079 15.6021C126.044 14.6193 128.256 14.2508 130.958 14.2508C133.538 14.2508 135.872 14.7422 137.838 15.6021C139.804 16.5849 141.401 17.6906 142.629 19.1648C143.858 20.639 144.84 22.236 145.455 24.0788C146.069 25.9215 146.437 27.6414 146.437 29.4842C146.437 31.2041 146.069 33.0468 145.455 34.8896C144.84 36.7323 143.858 38.3294 142.629 39.8036C141.401 41.2778 139.681 42.5063 137.838 43.3662C135.872 44.349 133.661 44.7176 130.958 44.7176C128.379 44.7176 126.044 44.2262 124.079 43.3662C122.113 42.3834 120.516 41.2778 119.288 39.8036C118.059 38.3294 117.076 36.7323 116.462 34.8896C115.725 33.0468 115.479 31.2041 115.479 29.4842ZM178.256 43.8576H170.148V40.7864H170.025C169.533 41.7692 169.042 42.5063 168.428 42.9977C167.813 43.4891 167.199 43.8576 166.462 44.2262C165.725 44.4719 165.111 44.7176 164.374 44.7176C163.759 44.8404 163.145 44.8404 162.531 44.8404C162.039 44.8404 161.548 44.8404 160.811 44.7176C160.074 44.5947 159.337 44.4719 158.6 44.2262C157.863 43.9805 157.003 43.6119 156.266 43.1205C155.528 42.6291 154.791 42.0149 154.177 41.1549C153.563 40.4178 153.071 39.8036 152.826 39.0665C152.457 38.4522 152.211 37.7151 152.089 37.1009C151.843 36.4866 151.72 35.7495 151.72 34.8896C151.72 34.1525 151.597 33.1697 151.597 32.1869V14.9879H160.197V30.9584C160.197 31.4498 160.197 32.064 160.32 32.6783C160.32 33.2925 160.565 34.0296 160.811 34.521C161.057 35.1353 161.548 35.6267 162.162 35.9952C162.777 36.3638 163.637 36.6095 164.865 36.6095C165.479 36.6095 166.094 36.4866 166.708 36.3638C167.322 36.1181 167.813 35.8724 168.305 35.381C168.796 34.8896 169.165 34.3982 169.41 33.5382C169.656 32.8011 169.779 31.8183 169.779 30.7127V15.1107H178.379V43.8576H178.256Z" fill="white"/>
<path fill-rule="evenodd" clip-rule="evenodd" d="M17.199 35.5039V52.4572C7.73956 51.2287 0.36855 44.1034 0 35.5039H17.199Z" fill="white"/>
<path fill-rule="evenodd" clip-rule="evenodd" d="M23.3413 0H40.5403V20.1474C36.3634 15.602 30.2209 12.5307 23.3413 11.7936V0Z" fill="white"/>
<path fill-rule="evenodd" clip-rule="evenodd" d="M17.199 0H0V29.484H0.982801H17.199H23.2187V35.5037V52.457C32.9238 51.1057 40.4177 43.7346 40.4177 34.7666C40.4177 24.9386 31.3268 16.8305 20.1474 16.8305C19.1646 16.8305 18.059 16.9533 17.0762 17.0762V0H17.199Z" fill="white"/>
</g>
</g>
<defs>
<clipPath id="clip0_840_164">
<rect width="200" height="53" fill="white"/>
</clipPath>
</defs>
</svg>
